<svg enable-background="new 0 0 24 24" viewBox="0 0 24 24" xmlns="http://www.w3.org/2000/svg"><path d="m24 4.5c0-2.485-2.015-4.5-4.5-4.5-1.189 0-2.263.47-3.067 1.223-.703-.453-1.535-.723-2.433-.723-2.333 0-4.229 1.782-4.455 4.055-.181-.022-.358-.055-.545-.055-2.485 0-4.5 2.015-4.5 4.5 0 .187.033.364.055.545-2.273.226-4.055 2.122-4.055 4.455 0 .898.27 1.73.723 2.433-.753.804-1.223 1.878-1.223 3.067 0 2.485 2.015 4.5 4.5 4.5 1.189 0 2.263-.47 3.067-1.223.703.453 1.535.723 2.433.723 2.333 0 4.229-1.782 4.455-4.055.181.022.358.055.545.055 2.485 0 4.5-2.015 4.5-4.5 0-.187-.033-.364-.055-.545 2.273-.226 4.055-2.122 4.055-4.455 0-.898-.27-1.73-.723-2.433.753-.804 1.223-1.878 1.223-3.067zm-7.293 4.207-8 8c-.195.195-.451.293-.707.293s-.512-.098-.707-.293c-.391-.391-.391-1.023 0-1.414l8-8c.391-.391 1.023-.391 1.414 0s.391 1.023 0 1.414z"/></svg>