<?xml version="1.0" standalone="yes"?>
<svg xmlns="http://www.w3.org/2000/svg"
  xmlns:xlink="http://www.w3.org/1999/xlink"
  xmlns:svgjs="http://svgjs.com/svgjs" id="SvgjsSvg1050" width="360" height="105" version="1.1" style="zoom: 1;">
  <defs id="SvgjsDefs1051">
    <svg xmlns="http://www.w3.org/2000/svg" 
      xmlns:xlink="http://www.w3.org/1999/xlink" width="50px" height="50px" version="1.1" x="0px" y="0px" viewBox="0 0 92.107 94.266" enable-background="new 0 0 92.107 94.266" id="a1483048935484">
      <path fill-rule="evenodd" clip-rule="evenodd" d="M92.088,8.89c0.302,13.472-2.825,27.547-10.605,41.65 c-3.161,5.729-7.258,11.487-12.672,17.294C57.367,80.107,45.224,86.567,34.033,90.349c-11.417,3.858-22.418,4.701-33.397,3.248 C0.44,90.863,0.12,88.198,0.035,85.48c-0.257-8.149,0.901-16.393,3.46-24.793c1.689-5.546,3.954-11.187,7.172-16.882 c3.216-5.695,7.162-11.546,12.622-17.291C35.017,14.176,46.757,7.845,58.072,3.951C69.482,0.022,80.54-0.76,91.472,0.654 C91.759,3.411,92.024,6.125,92.088,8.89z M50.218,41.61c-0.166-0.037-0.052-0.25-0.045-0.351c0.532-6.918,0.843-13.806,1.38-20.805 c0.129-1.684,0.194-3.47,0.336-5.3c0.041-0.546,0.22-1.409-0.06-1.747c-0.222-0.27-0.809-0.196-1.211-0.17 c-0.409,0.025-1.016,0.04-1.294,0.311c-0.366,0.351-0.326,1.444-0.368,1.99c-0.557,7.237-0.857,14.309-1.411,21.54 c-0.143,1.833-0.226,3.869-0.38,5.873c-0.037,0.497,0.026,1.619-0.198,1.954c-0.223,0.336-12.16,12.288-17.695,17.765 c-0.098-0.074-0.054-0.254-0.046-0.352c0.441-5.742,0.72-11.563,1.163-17.335c0.226-2.946,0.328-5.831,0.56-8.866 c0.042-0.549,0.252-1.422-0.057-1.748c-0.242-0.251-0.861-0.218-1.234-0.19c-0.379,0.028-0.993,0.109-1.25,0.353 c-0.422,0.404-0.348,1.473-0.369,1.991c-0.179,4.545-0.679,9.214-0.906,13.696c-0.236,4.701-0.609,9.821-0.983,14.694 c-0.025,0.34-0.002,0.822-0.098,0.977c-0.151,0.241-0.556,0.588-0.86,0.893c-3.82,3.836-7.437,7.511-11.303,11.324 c-1.016,1.003-1.994,1.895-1.555,2.767c0.298,0.591,1.028,0.943,1.649,0.704c0.551-0.211,1.169-0.976,1.776-1.575 c1.915-1.889,3.69-3.729,5.43-5.444c1.744-1.722,3.59-3.63,5.431-5.444c0.601-0.592,1.143-1.358,1.769-1.788 c0.335-0.232,1.443-0.226,1.962-0.266c8.442-0.63,26.384-2.229,27.089-2.305c0.546-0.059,1.52,0.069,1.945-0.334 c0.372-0.355,0.541-2.184,0.144-2.52c-0.309-0.262-1.242-0.031-1.751,0.013c-8.724,0.742-17.621,1.483-26.142,2.163 c4.337-4.475,15.417-15.516,16.554-16.637c0.396-0.391,0.776-0.866,1.115-1.1c0.368-0.255,1.415-0.151,1.961-0.219 c4.578-0.557,9.005-0.72,13.546-1.176c2.572-0.257,5.076-0.449,7.748-0.648c1.861-0.138,3.842-0.358,5.819-0.505 c0.556-0.041,1.573-0.003,1.948-0.382c0.272-0.274,0.317-0.854,0.336-1.255c0.017-0.346,0.062-0.967-0.174-1.193 c-0.307-0.297-1.231-0.075-1.747-0.036c-8.688,0.648-17.729,1.581-26.237,2.171c6.643-6.558,13.553-13.723,20.448-20.524 c1.552-1.53,3.408-3.448,5.121-5.137c1.159-1.144,2.093-2.011,1.234-2.979c-0.962-1.086-1.929-0.077-3.104,1.083 C67.486,24.138,58.839,33.098,50.218,41.61z"></path>
    </svg>
    <!--?xml version="1.0"?-->
    <svg width="476.736px" height="238.4px" id="t1483048935484">
      <path fill="#588F27" d="M31.936,16l-7.296,22.4l-2.432,0l-5.76-16.064l-5.76,16.064l-2.432,0l-7.296-22.4l3.68,0l4.96,15.36l5.536-15.36l2.624,0l5.536,15.36l4.96-15.36l3.68,0z M52.832,38.4l-2.048-4.736l-11.456,0l-2.048,4.736l-3.744,0l9.984-22.4l3.072,0l9.984,22.4l-3.744,0z M40.608,30.752l8.896,0l-4.448-10.304z M74.336,16l3.52,0l0,22.4l-2.688,0l-12.512-15.968l0,15.968l-3.52,0l0-22.4l2.72,0l12.48,16l0-16z M88.928,16c6.464,0,11.328,4.96,11.328,11.136c0,6.304-4.864,11.264-11.328,11.264l-7.232,0l0-22.4l7.232,0z M88.896,35.072c4.896,0,7.776-3.552,7.776-7.936c0-4.256-2.88-7.808-7.776-7.808l-3.68,0l0,15.744l3.68,0z M106.976,35.136l10.144,0l0,3.264l-10.784,0l-2.88,0l0-22.4l3.52,0l9.856,0l0,3.264l-9.856,0l0,6.272l7.584,0l0,3.2l-7.584,0l0,6.4z M137.44,38.4l-3.776,0l-5.28-7.808l-0.384,0l-4,0l0,7.808l-3.52,0l0-22.4l7.52,0c5.024,0,8.096,3.072,8.096,7.392c0,3.136-1.632,5.536-4.448,6.592z M124,19.264l0,8.256l3.84,0c2.848,0,4.736-1.344,4.736-4.128s-1.888-4.128-4.736-4.128l-3.84,0z M143.84,16l0,22.4l-3.52,0l0-22.4l3.52,0z M162.88,16l3.52,0l0,22.4l-2.688,0l-12.512-15.968l0,15.968l-3.52,0l0-22.4l2.72,0l12.48,16l0-16z M191.392,26.848c0.704,7.328-4.192,11.872-10.112,11.872c-6.144,0-11.52-4.736-11.52-11.52s5.504-11.52,11.52-11.52c2.88,0,5.472,0.96,7.456,2.656l-2.144,2.432c-1.408-1.088-3.232-1.76-5.088-1.76c-4.352,0-8.096,3.392-8.096,8.192s3.616,8.192,7.872,8.192c3.552,0,6.176-1.632,6.848-5.504l-5.984,0l0-3.04l9.248,0z M207.936,35.136l9.504,0l0,3.264l-13.024,0l0-22.4l3.52,0l0,19.136z M224.16,35.136l10.144,0l0,3.264l-10.784,0l-2.88,0l0-22.4l3.52,0l9.856,0l0,3.264l-9.856,0l0,6.272l7.584,0l0,3.2l-7.584,0l0,6.4z M255.68,38.4l-2.048-4.736l-11.456,0l-2.048,4.736l-3.744,0l9.984-22.4l3.072,0l9.984,22.4l-3.744,0z M243.456,30.752l8.896,0l-4.448-10.304z M275.616,19.2l-10.016,0l0,6.432l8.256,0l0,3.008l-8.256,0l0,9.76l-3.616,0l0-22.4l13.632,0l0,3.2z"></path>
    </svg>    <!--?xml version="1.0"?-->
    <svg width="125.4736328125px" height="45.9765625px" id="s1483048935484">
      <path fill="#588F27" d="M6.38671875,34.4384765625q-0.2490234375,0.3076171875-0.47607421875,0.5419921875t-0.47607421875,0.40283203125t-0.54931640625,0.2783203125t-0.68115234375,0.15380859375q-0.1904296875,0.029296875-0.3955078125,0.03662109375t-0.439453125-0.02197265625q-0.322265625-0.029296875-0.6298828125-0.029296875t-0.6298828125-0.0732421875q-0.703125-0.1611328125-1.171875-0.4833984375t-0.7177734375-0.8349609375q-0.322265625-0.703125,0.3662109375-0.732421875q0.1171875,0,0.27099609375,0.16845703125t0.24169921875,0.25634765625q0.3076171875,0.3076171875,0.3515625,0.3369140625l0.0146484375,0l0,0.0146484375q0.7177734375,0.498046875,1.904296875,0.498046875l0.0146484375,0l0.0146484375,0q0.498046875,0,1.2744140625-0.205078125q0.76171875-0.1904296875,1.0107421875-0.7763671875q0.1318359375-0.3515625,0-0.76171875l0-0.0146484375q-0.3662109375-0.7763671875-1.4208984375-1.0400390625l-1.8017578125-0.46875q-0.380859375-0.087890625-0.9228515625-0.3662109375q-0.2783203125-0.146484375-0.4833984375-0.263671875t-0.3369140625-0.234375q-0.6005859375-0.439453125-0.703125-0.87890625q-0.0146484375-0.0732421875-0.0146484375-0.205078125l0-0.322265625q0-0.205078125,0.029296875-0.40283203125t0.05859375-0.41748046875q0.087890625-0.673828125,0.5712890625-1.201171875q0.2197265625-0.2197265625,0.53466796875-0.37353515625t0.60791015625-0.28564453125q0.41015625-0.1904296875,0.85693359375-0.19775390625t0.88623046875,0.00732421875q1.435546875,0.0439453125,2.2412109375,1.0107421875q0.3662109375,0.4541015625,0.2783203125,0.7470703125l-0.1025390625,0.087890625q-0.234375,0.1171875-0.556640625-0.1611328125q-0.087890625-0.05859375-0.1611328125-0.1318359375l-0.146484375-0.146484375t-0.1904296875-0.15380859375t-0.263671875-0.15380859375l-0.029296875-0.029296875l-0.0439453125,0q-0.5419921875-0.1611328125-1.10595703125-0.1904296875t-1.16455078125,0.1025390625q-0.7177734375,0.1611328125-1.0986328125,0.59326171875t-0.380859375,1.14990234375l0,0.029296875l0.0146484375,0.029296875q0.05859375,0.908203125,1.40625,1.2890625l0.4248046875,0.1171875l1.083984375,0.3662109375q0.2490234375,0.087890625,0.498046875,0.19775390625t0.52734375,0.22705078125q0.41015625,0.1904296875,0.76171875,0.3662109375t0.64453125,0.3662109375q0.205078125,0.1318359375,0.31494140625,0.322265625t0.146484375,0.41015625t0.029296875,0.4541015625t-0.05126953125,0.4248046875q-0.029296875,0.1611328125-0.09521484375,0.3076171875t-0.13916015625,0.263671875z M23.701171875,27.2900390625q-0.205078125,0.234375-0.673828125,0.205078125l-0.732421875-0.0439453125q-0.2197265625-0.0146484375-0.4248046875-0.029296875t-0.4248046875-0.0146484375q-0.439453125-0.0146484375-0.64453125,0.1904296875q-0.1611328125,0.1904296875-0.1611328125,0.6298828125q0,0.205078125,0.02197265625,0.40283203125t0.02197265625,0.40283203125q0.0146484375,0.4833984375,0.02197265625,0.84228515625t0.00732421875,0.60791015625q0,0.7470703125-0.087890625,1.494140625q-0.0439453125,0.3515625,0,0.703125t0.05859375,0.6884765625q0.0146484375,0.380859375,0.02197265625,0.6591796875t0.00732421875,0.46875l0,0.19775390625t-0.0146484375,0.31494140625q-0.029296875,0.3955078125-0.05859375,0.4833984375q-0.1904296875,0.322265625-0.498046875,0.234375q-0.380859375-0.0732421875-0.380859375-0.556640625q-0.0146484375-0.439453125,0.02197265625-0.88623046875t0.06591796875-0.88623046875q0.0439453125-0.5126953125-0.00732421875-1.0400390625t-0.05126953125-1.0546875q0-0.4833984375,0.03662109375-0.97412109375t0.05126953125-0.97412109375q0-0.9521484375-0.3076171875-1.34765625q-0.1611328125-0.205078125-0.38818359375-0.31494140625t-0.50537109375-0.13916015625t-0.52001953125-0.05126953125t-0.47607421875-0.02197265625l-0.44677734375,0t-0.41748046875-0.087890625q-0.1171875-0.05859375-0.146484375-0.2783203125q-0.029296875-0.1611328125,0.0439453125-0.2783203125q0.1025390625-0.17578125,0.5126953125-0.2197265625q0.0439453125-0.0146484375,0.1611328125-0.0146484375q0.615234375-0.0146484375,1.19384765625,0.05126953125t1.19384765625,0.02197265625q0.2490234375-0.0146484375,0.49072265625-0.0439453125t0.50537109375-0.029296875l0.97412109375,0t0.97412109375-0.0146484375q0.2490234375,0,0.43212890625,0.0146484375t0.31494140625,0.0732421875q0.4541015625,0.3076171875,0.234375,0.615234375z M40.4443359375,26.5869140625q0.439453125-0.0146484375,0.439453125,0.439453125q0,0.615234375-0.00732421875,1.201171875t-0.08056640625,1.201171875q-0.0732421875,0.5712890625-0.00732421875,1.1279296875t0.06591796875,1.11328125l0,0.1025390625l-0.05859375,0.99609375q-0.029296875,0.322265625-0.0732421875,0.5712890625t-0.0732421875,0.41015625l-0.029296875,0.05859375l-0.029296875,0.1025390625l0,0.0146484375q-0.0439453125,0.17578125-0.1611328125,0.35888671875t-0.25634765625,0.3515625t-0.30029296875,0.31494140625t-0.29296875,0.263671875q-0.2490234375,0.2197265625-0.5419921875,0.3515625t-0.615234375,0.1904296875t-0.65185546875,0.08056640625t-0.63720703125,0.02197265625q-0.5419921875,0-1.0546875-0.12451171875t-0.99609375-0.41748046875q-0.029296875-0.029296875-0.029296875-0.0439453125q-0.0439453125-0.0146484375-0.0732421875-0.0439453125l-0.05859375-0.05859375q-0.0439453125-0.029296875-0.0732421875-0.05126953125t-0.05859375-0.06591796875q-0.732421875-0.7763671875-0.9375-1.93359375q-0.087890625-0.5712890625-0.1171875-1.12060546875t0-1.07666015625q0.0146484375-0.1318359375,0.029296875-0.25634765625t0.029296875-0.25634765625q0.0146484375-0.17578125,0.00732421875-0.3369140625t-0.02197265625-0.3076171875q-0.087890625-1.1572265625-0.0439453125-2.7392578125q0.0146484375-0.3076171875,0.380859375-0.439453125q0.29296875-0.087890625,0.498046875,0.05859375q0.1171875,0.1171875,0.1171875,0.263671875q0.0146484375,0.205078125,0.00732421875,0.52734375t-0.02197265625,0.7470703125q0,0.3662109375-0.029296875,0.732421875t-0.029296875,0.7177734375q0,0.439453125-0.029296875,0.85693359375t-0.029296875,0.84228515625q0,0.8203125,0.263671875,1.845703125q0.029296875,0.1318359375,0.06591796875,0.24169921875t0.06591796875,0.22705078125q0.2197265625,0.6884765625,0.673828125,0.9521484375q0.3369140625,0.205078125,1.259765625,0.263671875q0.1171875,0.0146484375,0.234375,0.03662109375t0.2490234375,0.02197265625l0.0146484375,0l0.0146484375,0q0.703125,0,1.23046875-0.2490234375t0.8935546875-0.8642578125q0.29296875-0.498046875,0.29296875-1.5234375l0-0.32958984375t0.0146484375-0.22705078125q0.146484375-1.3037109375-0.029296875-2.724609375q-0.029296875-0.1904296875,0.0439453125-0.703125q0.029296875-0.205078125,0.0439453125-0.3662109375t0.0146484375-0.2783203125q0-0.6298828125,0.087890625-0.849609375q0.1171875-0.2197265625,0.41015625-0.2197265625z M57.392578125,27.5390625l0.0439453125,0.0439453125q0.1611328125,0.1904296875,0.30029296875,0.4248046875t0.25634765625,0.52734375q0.087890625,0.205078125,0.19775390625,0.38818359375t0.18310546875,0.38818359375q0.1171875,0.322265625,0.17578125,0.5859375t0.0732421875,0.498046875t0.00732421875,0.50537109375t-0.05126953125,0.60791015625q-0.029296875,0.29296875-0.029296875,0.57861328125t-0.05859375,0.57861328125q-0.0732421875,0.380859375-0.22705078125,0.75439453125t-0.35888671875,0.71044921875q-0.3662109375,0.5859375-1.025390625,1.0693359375l-0.1171875,0.05859375q-0.1611328125,0.1171875-0.2783203125,0.1318359375q-0.1611328125,0.0732421875-0.3076171875,0.12451171875t-0.2783203125,0.08056640625q-0.76171875,0.17578125-1.5673828125,0.15380859375t-1.5673828125-0.00732421875q-0.2783203125,0-0.673828125,0.00732421875t-0.6298828125-0.13916015625q-0.205078125-0.1025390625-0.263671875-0.3955078125q-0.0146484375-0.05859375-0.0146484375-0.2490234375q0-0.703125,0.0146484375-1.39892578125t0.0439453125-1.39892578125q0.029296875-0.3515625-0.0146484375-0.72509765625t-0.0439453125-0.73974609375l0-1.5234375l0-1.23046875q0-0.87890625,0.2197265625-1.142578125q0.234375-0.2490234375,0.7177734375-0.234375q0.2490234375,0.0146484375,0.46142578125,0.00732421875t0.37353515625-0.00732421875q0.556640625-0.0146484375,1.13525390625,0.0146484375t1.19384765625,0.05859375q1.201171875,0.0732421875,2.109375,0.87890625l0,0.0146484375z M55.4736328125,27.5830078125l-0.0146484375,0q-0.205078125-0.029296875-0.50537109375-0.029296875t-0.69580078125,0.029296875q-0.7177734375,0.0439453125-1.11328125-0.0146484375q-0.64453125-0.1025390625-0.791015625,0q-0.2197265625,0.1611328125-0.2197265625,0.6298828125t0.0146484375,0.9228515625t-0.0146484375,0.8935546875q-0.0732421875,1.0986328125-0.05126953125,2.17529296875t0.02197265625,2.14599609375q0,0.2490234375,0.17578125,0.3955078125q0.17578125,0.1611328125,0.6884765625,0.087890625q0.0146484375,0,0.03662109375-0.00732421875t0.03662109375-0.00732421875q0.29296875-0.0146484375,0.54931640625-0.00732421875t0.49072265625,0.02197265625q0.87890625,0.05859375,1.6845703125-0.087890625q0.8203125-0.17578125,1.2744140625-1.0693359375q0.205078125-0.3955078125,0.35888671875-0.76171875t0.24169921875-0.73974609375t0.10986328125-0.76904296875t-0.02197265625-0.8642578125q-0.087890625-0.908203125-0.5859375-1.8017578125q-0.2490234375-0.4248046875-0.66650390625-0.703125t-0.98876953125-0.4248046875z M69.287109375,35.7568359375q-0.46875-0.0732421875-0.46875-0.556640625q-0.0146484375-0.791015625-0.0146484375-1.552734375l0-1.552734375q0-0.439453125,0.0439453125-0.87890625q0.029296875-0.322265625,0.029296875-0.6005859375t-0.0146484375-0.5126953125q-0.0146484375-0.146484375-0.029296875-0.3515625t-0.029296875-0.4833984375q0-0.146484375,0.00732421875-0.3515625t0.02197265625-0.4833984375q0.0146484375-0.205078125,0.02197265625-0.35888671875t0.00732421875-0.27099609375l0-0.322265625l0-0.0146484375l0-0.1171875q-0.0439453125-0.3662109375,0.0146484375-0.5126953125q0.0439453125-0.1025390625,0.1904296875-0.205078125q0.5712890625-0.29296875,0.703125,0.3662109375q0.1171875,0.498046875,0.13916015625,0.97412109375t-0.02197265625,0.94482421875l0,0.0146484375q-0.0439453125,0.4541015625-0.02197265625,0.908203125t-0.02197265625,0.908203125q-0.0439453125,0.3955078125-0.0732421875,0.6884765625t-0.0439453125,0.498046875q-0.029296875,0.29296875-0.029296875,0.60791015625t0.0146484375,0.66650390625q0.0146484375,0.0732421875,0.0146484375,0.16845703125l0,0.22705078125l0,0.46875t0.0146484375,0.4541015625q0,0.1611328125,0.00732421875,0.30029296875t-0.00732421875,0.28564453125q0,0.29296875-0.0146484375,0.322265625q-0.05859375,0.2783203125-0.439453125,0.322265625z M83.173828125,35.7275390625q-0.29296875-0.087890625-0.59326171875-0.22705078125t-0.5859375-0.322265625t-0.53466796875-0.41015625t-0.4248046875-0.49072265625q-0.234375-0.3662109375-0.3369140625-0.75439453125t-0.29296875-0.79833984375q-0.146484375-0.322265625-0.1611328125-0.703125q-0.0146484375-0.17578125-0.03662109375-0.35888671875t-0.02197265625-0.35888671875q-0.0146484375-0.17578125-0.02197265625-0.3076171875t-0.00732421875-0.2197265625q0-0.2783203125,0.03662109375-0.57861328125t0.10986328125-0.62255859375q0.0146484375-0.1025390625,0.087890625-0.263671875q0.146484375-0.439453125,0.37353515625-0.82763671875t0.52001953125-0.72509765625q0.5712890625-0.64453125,1.5966796875-1.142578125q0.46875-0.205078125,0.9814453125-0.1904296875q0.322265625,0.029296875,0.64453125,0.087890625q0.263671875,0.0439453125,0.46142578125,0.06591796875t0.34423828125,0.05126953125q1.1279296875,0.1318359375,1.9921875,0.99609375q0.1904296875,0.1904296875,0.35888671875,0.41748046875t0.32958984375,0.49072265625l0.0732421875,0.1171875q0.0146484375,0.0439453125,0.029296875,0.0732421875l0.029296875,0.05859375q0.2490234375,0.5859375,0.4541015625,1.46484375q0.1904296875,0.8203125,0.05859375,1.5087890625q-0.087890625,0.3955078125-0.2197265625,0.76171875t-0.234375,0.732421875q-0.5712890625,1.962890625-2.578125,2.4755859375l-0.1171875,0.029296875q-0.1171875,0.029296875-0.29296875,0.05859375t-0.41015625,0.05859375q-0.380859375,0.0439453125-0.78369140625,0.0146484375t-0.82763671875-0.1611328125z M84.6533203125,27.3486328125q-0.791015625,0-1.42822265625,0.1904296875t-1.14990234375,0.703125q-0.703125,0.703125-0.8935546875,1.56005859375t0.0146484375,1.91162109375l0.1318359375,0.7177734375q0.029296875,0.205078125,0.05859375,0.32958984375t0.0439453125,0.15380859375q0.087890625,0.322265625,0.3515625,0.615234375t0.4833984375,0.5126953125q0.1171875,0.1318359375,0.234375,0.25634765625t0.2490234375,0.22705078125q0.2197265625,0.1904296875,0.732421875,0.3515625l0.0146484375,0q0.2783203125,0.0732421875,0.62255859375,0.05126953125t0.76904296875-0.12451171875q0.205078125-0.05859375,0.41748046875-0.08056640625t0.43212890625-0.08056640625q0.5419921875-0.1318359375,0.908203125-0.5859375l0.0146484375,0l0-0.0146484375q0.234375-0.2783203125,0.3955078125-0.703125q0.146484375-0.4248046875,0.2197265625-0.5419921875q0.732421875-1.435546875,0.2197265625-3.10546875l-0.0146484375-0.0146484375q-0.05859375-0.1611328125-0.1171875-0.3076171875t-0.1611328125-0.29296875q-0.5712890625-0.8642578125-1.3623046875-1.2451171875q-0.029296875-0.0146484375-0.1318359375-0.0732421875t-0.29296875-0.17578125q-0.263671875-0.1611328125-0.7470703125-0.234375l-0.0146484375,0z M105.2783203125,34.4384765625q-0.2490234375,0.3076171875-0.47607421875,0.5419921875t-0.47607421875,0.40283203125t-0.54931640625,0.2783203125t-0.68115234375,0.15380859375q-0.1904296875,0.029296875-0.3955078125,0.03662109375t-0.439453125-0.02197265625q-0.322265625-0.029296875-0.6298828125-0.029296875t-0.6298828125-0.0732421875q-0.703125-0.1611328125-1.171875-0.4833984375t-0.7177734375-0.8349609375q-0.322265625-0.703125,0.3662109375-0.732421875q0.1171875,0,0.27099609375,0.16845703125t0.24169921875,0.25634765625q0.3076171875,0.3076171875,0.3515625,0.3369140625l0.0146484375,0l0,0.0146484375q0.7177734375,0.498046875,1.904296875,0.498046875l0.0146484375,0l0.0146484375,0q0.498046875,0,1.2744140625-0.205078125q0.76171875-0.1904296875,1.0107421875-0.7763671875q0.1318359375-0.3515625,0-0.76171875l0-0.0146484375q-0.3662109375-0.7763671875-1.4208984375-1.0400390625l-1.8017578125-0.46875q-0.380859375-0.087890625-0.9228515625-0.3662109375q-0.2783203125-0.146484375-0.4833984375-0.263671875t-0.3369140625-0.234375q-0.6005859375-0.439453125-0.703125-0.87890625q-0.0146484375-0.0732421875-0.0146484375-0.205078125l0-0.322265625q0-0.205078125,0.029296875-0.40283203125t0.05859375-0.41748046875q0.087890625-0.673828125,0.5712890625-1.201171875q0.2197265625-0.2197265625,0.53466796875-0.37353515625t0.60791015625-0.28564453125q0.41015625-0.1904296875,0.85693359375-0.19775390625t0.88623046875,0.00732421875q1.435546875,0.0439453125,2.2412109375,1.0107421875q0.3662109375,0.4541015625,0.2783203125,0.7470703125l-0.1025390625,0.087890625q-0.234375,0.1171875-0.556640625-0.1611328125q-0.087890625-0.05859375-0.1611328125-0.1318359375l-0.146484375-0.146484375t-0.1904296875-0.15380859375t-0.263671875-0.15380859375l-0.029296875-0.029296875l-0.0439453125,0q-0.5419921875-0.1611328125-1.10595703125-0.1904296875t-1.16455078125,0.1025390625q-0.7177734375,0.1611328125-1.0986328125,0.59326171875t-0.380859375,1.14990234375l0,0.029296875l0.0146484375,0.029296875q0.05859375,0.908203125,1.40625,1.2890625l0.4248046875,0.1171875l1.083984375,0.3662109375q0.2490234375,0.087890625,0.498046875,0.19775390625t0.52734375,0.22705078125q0.41015625,0.1904296875,0.76171875,0.3662109375t0.64453125,0.3662109375q0.205078125,0.1318359375,0.31494140625,0.322265625t0.146484375,0.41015625t0.029296875,0.4541015625t-0.05126953125,0.4248046875q-0.029296875,0.1611328125-0.09521484375,0.3076171875t-0.13916015625,0.263671875z"></path>
    </svg>
  </defs>
  <g id="SvgjsG1055" transform="matrix(1 0 0 1 0 0)">
    <use stroke="#588f27" x="155px" y="0px" id="SvgjsUse1054" xlink:href="#a1483048935484" fill="#588f27"></use>
    <use id="SvgjsUse1052" xlink:href="#t1483048935484" fill="#588f27" x="41.71199560165405" y="44.73584720492363"></use>
    <use id="SvgjsUse1053" xlink:href="#s1483048935484" fill="#588f27" y="67.11795780062675" x="127.1630859375"></use>
  </g>
</svg>